<svg fill="none" xmlns="http://www.w3.org/2000/svg" viewBox="0 0 421 268"><path d="M40.147 126.149c2.382-14.529 7.324-27.781 12.786-41.077 6.605-16.08 10.9-31.949 22.318-44.329 12.624-13.687 27.24-23.547 43.395-29.49 7.88-2.898 19.293-6.671 27.13-2.171 7.41 4.254 7.695 18.83 6.886 27.241-2.133 22.153-14.29 41.414-24.135 59.754-24.832 46.264-49.196 95.459-87.396 127.957-11.555 9.829-34.825 18.788-35.304-6.031-.882-45.671 25.142-76.649 53.694-103.218 17.322-16.118 35.693-31.118 54.201-45.139 15.88-12.031 33.42-25.217 52.477-26.509 49.101-3.331-3.433 87.97-10.476 109.634-7.659 23.561-11.701 48.549-23.413 70.11-11.036 20.314-27.959 37.575-48.016 42.234-3.652.848-7.755 1.611-11.38.404-7.173-2.387-3.912-14.348-2.115-20.23 8.043-26.326 24.999-48.316 40.999-68.17 15.392-19.099 32.159-37.583 52.367-48.847 16.86-9.398 42.51-17.956 43.148 13.843.56 27.953-15.909 62.035-32.662 81.383-.28.323-3.027 3.279-3.369 1.271-.486-2.854.717-10.307 1.003-11.648 4.793-22.5 13.509-43.559 22.954-63.814 5.46-11.707 11.163-22.789 17.858-33.483 1.534-2.45 3.942-7.431 5.984-5.731 2.18 1.815 2.635 9.417 2.785 10.915 1.135 11.35.775 22.904-.116 34.323-1.247 15.998-3.624 31.893-6.573 47.609-1.55 8.263-6.813 21.681-5.472 30.265.951 6.086 12.174-9.199 12.199-9.23 9.965-12.198 19.195-25.205 27.99-38.622 1.632-2.49 11.946-21.888 10.56-8.917-.646 6.049-1.668 12.075-2.526 18.092-.639 4.478-3.321 13.093-1.844 17.546 2.073 6.248 10.645-2.916 12.593.339 3.89 6.502-2.686 20.553-.563 28.598.472 1.79 2.971 9.369 5.207 9.345 5.223-.058 17.702-9.03 21.052-10.806a75245.884 75245.884 0 0 0 124.884-66.344" stroke="#F6EFAD" stroke-width="3" stroke-linecap="round"/><path d="M33.44 110.6c2.17-13.259 6.641-25.357 11.58-37.497 5.972-14.682 9.866-29.167 20.164-40.484C76.57 20.107 89.741 11.081 104.291 5.625c7.097-2.66 17.375-6.127 24.42-2.04 6.661 3.865 6.892 17.16 6.149 24.833-1.959 20.212-12.935 37.808-21.827 54.559-22.43 42.253-44.446 87.18-78.883 116.906-10.416 8.991-31.375 17.215-31.762-5.424-.71-41.657 22.764-69.97 48.507-94.267 15.618-14.741 32.178-28.463 48.86-41.293 14.314-11.008 30.122-23.074 47.276-24.295 44.195-3.145-3.247 80.25-9.624 100.026-6.935 21.509-10.617 44.311-21.196 64.003-9.968 18.554-25.229 34.336-43.288 38.628-3.289.782-6.983 1.487-10.242.394-6.452-2.162-3.495-13.079-1.868-18.449 7.285-24.03 22.584-44.125 37.02-62.27 13.886-17.455 29.008-34.352 47.215-44.671 15.191-8.609 38.29-16.471 38.807 12.534.455 25.496-14.428 56.619-29.539 74.304-.253.296-2.731 2.998-3.035 1.167-.432-2.602.664-9.403.923-10.627 4.355-20.534 12.236-39.762 20.773-58.258 4.934-10.691 10.086-20.811 16.131-30.581 1.385-2.238 3.56-6.786 5.396-5.24 1.958 1.65 2.354 8.584 2.486 9.95 1.001 10.351.657 20.89-.165 31.307-1.151 14.596-3.318 29.1-6 43.442-1.41 7.54-6.171 19.791-4.979 27.618.845 5.55 10.972-8.417 10.995-8.445 8.989-11.149 17.32-23.033 25.259-35.291 1.473-2.275 10.79-19.991 9.52-8.157-.592 5.52-1.523 11.019-2.306 16.508-.583 4.087-3.013 11.951-1.691 16.01 1.855 5.694 9.586-2.684 11.333.281 3.489 5.923-2.454 18.754-.558 26.087.422 1.632 2.657 8.54 4.67 8.513 4.701-.064 15.947-8.276 18.966-9.902a68440.138 68440.138 0 0 0 112.509-60.789" stroke="#FEF8B9" stroke-width="3" stroke-linecap="round"/></svg>